<svg xmlns="http://www.w3.org/2000/svg" viewBox="0 0 2000 1200" preserveAspectRatio="xMidYMid slice">
  <defs>
    <radialGradient id="bgGradient" cx="50%" cy="50%">
      <stop offset="0%" style="stop-color:#f8fafc;stop-opacity:1" />
      <stop offset="100%" style="stop-color:#e2e8f0;stop-opacity:1" />
    </radialGradient>
  </defs>
  
  <rect width="2000" height="1200" fill="url(#bgGradient)"/>
  
  <!-- Network nodes and connections -->
  <g opacity="0.6">
    <!-- Nodes -->
    <circle cx="150" cy="200" r="8" fill="#2563eb"/>
    <circle cx="280" cy="150" r="6" fill="#3b82f6"/>
    <circle cx="420" cy="220" r="7" fill="#8b5cf6"/>
    <circle cx="550" cy="180" r="8" fill="#2563eb"/>
    <circle cx="680" cy="240" r="6" fill="#3b82f6"/>
    <circle cx="810" cy="190" r="7" fill="#8b5cf6"/>
    <circle cx="950" cy="210" r="8" fill="#2563eb"/>
    <circle cx="1080" cy="170" r="6" fill="#3b82f6"/>
    <circle cx="1220" cy="230" r="7" fill="#8b5cf6"/>
    <circle cx="1350" cy="200" r="8" fill="#2563eb"/>
    <circle cx="1480" cy="160" r="6" fill="#3b82f6"/>
    <circle cx="1620" cy="210" r="7" fill="#8b5cf6"/>
    <circle cx="1750" cy="190" r="8" fill="#2563eb"/>
    <circle cx="1850" cy="240" r="6" fill="#3b82f6"/>
    
    <circle cx="200" cy="350" r="7" fill="#3b82f6"/>
    <circle cx="340" cy="400" r="8" fill="#2563eb"/>
    <circle cx="480" cy="370" r="6" fill="#8b5cf6"/>
    <circle cx="620" cy="420" r="7" fill="#3b82f6"/>
    <circle cx="760" cy="380" r="8" fill="#2563eb"/>
    <circle cx="900" cy="410" r="6" fill="#8b5cf6"/>
    <circle cx="1040" cy="360" r="7" fill="#3b82f6"/>
    <circle cx="1180" cy="400" r="8" fill="#2563eb"/>
    <circle cx="1320" cy="380" r="6" fill="#8b5cf6"/>
    <circle cx="1460" cy="420" r="7" fill="#3b82f6"/>
    <circle cx="1600" cy="370" r="8" fill="#2563eb"/>
    <circle cx="1740" cy="410" r="6" fill="#8b5cf6"/>
    
    <circle cx="120" cy="550" r="6" fill="#8b5cf6"/>
    <circle cx="260" cy="580" r="7" fill="#2563eb"/>
    <circle cx="400" cy="540" r="8" fill="#3b82f6"/>
    <circle cx="540" cy="590" r="6" fill="#8b5cf6"/>
    <circle cx="680" cy="560" r="7" fill="#2563eb"/>
    <circle cx="820" cy="600" r="8" fill="#3b82f6"/>
    <circle cx="960" cy="570" r="6" fill="#8b5cf6"/>
    <circle cx="1100" cy="610" r="7" fill="#2563eb"/>
    <circle cx="1240" cy="580" r="8" fill="#3b82f6"/>
    <circle cx="1380" cy="620" r="6" fill="#8b5cf6"/>
    <circle cx="1520" cy="590" r="7" fill="#2563eb"/>
    <circle cx="1660" cy="630" r="8" fill="#3b82f6"/>
    <circle cx="1800" cy="600" r="6" fill="#8b5cf6"/>
    
    <circle cx="180" cy="750" r="7" fill="#3b82f6"/>
    <circle cx="320" cy="720" r="8" fill="#2563eb"/>
    <circle cx="460" cy="780" r="6" fill="#8b5cf6"/>
    <circle cx="600" cy="740" r="7" fill="#3b82f6"/>
    <circle cx="740" cy="790" r="8" fill="#2563eb"/>
    <circle cx="880" cy="760" r="6" fill="#8b5cf6"/>
    <circle cx="1020" cy="800" r="7" fill="#3b82f6"/>
    <circle cx="1160" cy="770" r="8" fill="#2563eb"/>
    <circle cx="1300" cy="820" r="6" fill="#8b5cf6"/>
    <circle cx="1440" cy="790" r="7" fill="#3b82f6"/>
    <circle cx="1580" cy="840" r="8" fill="#2563eb"/>
    <circle cx="1720" cy="810" r="6" fill="#8b5cf6"/>
    <circle cx="1860" cy="850" r="7" fill="#3b82f6"/>
    
    <circle cx="240" cy="950" r="8" fill="#2563eb"/>
    <circle cx="380" cy="920" r="6" fill="#3b82f6"/>
    <circle cx="520" cy="970" r="7" fill="#8b5cf6"/>
    <circle cx="660" cy="940" r="8" fill="#2563eb"/>
    <circle cx="800" cy="990" r="6" fill="#3b82f6"/>
    <circle cx="940" cy="960" r="7" fill="#8b5cf6"/>
    <circle cx="1080" cy="1000" r="8" fill="#2563eb"/>
    <circle cx="1220" cy="970" r="6" fill="#3b82f6"/>
    <circle cx="1360" cy="1020" r="7" fill="#8b5cf6"/>
    <circle cx="1500" cy="990" r="8" fill="#2563eb"/>
    <circle cx="1640" cy="1040" r="6" fill="#3b82f6"/>
    <circle cx="1780" cy="1010" r="7" fill="#8b5cf6"/>
    
    <!-- Connections -->
    <line x1="150" y1="200" x2="280" y2="150" stroke="#2563eb" stroke-width="1.5" opacity="0.4"/>
    <line x1="280" y1="150" x2="420" y2="220" stroke="#3b82f6" stroke-width="1.5" opacity="0.4"/>
    <line x1="420" y1="220" x2="550" y2="180" stroke="#8b5cf6" stroke-width="1.5" opacity="0.4"/>
    <line x1="550" y1="180" x2="680" y2="240" stroke="#2563eb" stroke-width="1.5" opacity="0.4"/>
    <line x1="680" y1="240" x2="810" y2="190" stroke="#3b82f6" stroke-width="1.5" opacity="0.4"/>
    <line x1="810" y1="190" x2="950" y2="210" stroke="#8b5cf6" stroke-width="1.5" opacity="0.4"/>
    <line x1="950" y1="210" x2="1080" y2="170" stroke="#2563eb" stroke-width="1.5" opacity="0.4"/>
    <line x1="1080" y1="170" x2="1220" y2="230" stroke="#3b82f6" stroke-width="1.5" opacity="0.4"/>
    <line x1="1220" y1="230" x2="1350" y2="200" stroke="#8b5cf6" stroke-width="1.5" opacity="0.4"/>
    <line x1="1350" y1="200" x2="1480" y2="160" stroke="#2563eb" stroke-width="1.5" opacity="0.4"/>
    <line x1="1480" y1="160" x2="1620" y2="210" stroke="#3b82f6" stroke-width="1.5" opacity="0.4"/>
    <line x1="1620" y1="210" x2="1750" y2="190" stroke="#8b5cf6" stroke-width="1.5" opacity="0.4"/>
    <line x1="1750" y1="190" x2="1850" y2="240" stroke="#2563eb" stroke-width="1.5" opacity="0.4"/>
    
    <line x1="150" y1="200" x2="200" y2="350" stroke="#3b82f6" stroke-width="1.5" opacity="0.3"/>
    <line x1="200" y1="350" x2="340" y2="400" stroke="#2563eb" stroke-width="1.5" opacity="0.4"/>
    <line x1="340" y1="400" x2="480" y2="370" stroke="#8b5cf6" stroke-width="1.5" opacity="0.4"/>
    <line x1="480" y1="370" x2="620" y2="420" stroke="#3b82f6" stroke-width="1.5" opacity="0.4"/>
    <line x1="620" y1="420" x2="760" y2="380" stroke="#2563eb" stroke-width="1.5" opacity="0.4"/>
    <line x1="760" y1="380" x2="900" y2="410" stroke="#8b5cf6" stroke-width="1.5" opacity="0.4"/>
    <line x1="900" y1="410" x2="1040" y2="360" stroke="#3b82f6" stroke-width="1.5" opacity="0.4"/>
    <line x1="1040" y1="360" x2="1180" y2="400" stroke="#2563eb" stroke-width="1.5" opacity="0.4"/>
    <line x1="1180" y1="400" x2="1320" y2="380" stroke="#8b5cf6" stroke-width="1.5" opacity="0.4"/>
    <line x1="1320" y1="380" x2="1460" y2="420" stroke="#3b82f6" stroke-width="1.5" opacity="0.4"/>
    <line x1="1460" y1="420" x2="1600" y2="370" stroke="#2563eb" stroke-width="1.5" opacity="0.4"/>
    <line x1="1600" y1="370" x2="1740" y2="410" stroke="#8b5cf6" stroke-width="1.5" opacity="0.4"/>
    
    <line x1="200" y1="350" x2="120" y2="550" stroke="#8b5cf6" stroke-width="1.5" opacity="0.3"/>
    <line x1="120" y1="550" x2="260" y2="580" stroke="#2563eb" stroke-width="1.5" opacity="0.4"/>
    <line x1="260" y1="580" x2="400" y2="540" stroke="#3b82f6" stroke-width="1.5" opacity="0.4"/>
    <line x1="400" y1="540" x2="540" y2="590" stroke="#8b5cf6" stroke-width="1.5" opacity="0.4"/>
    <line x1="540" y1="590" x2="680" y2="560" stroke="#2563eb" stroke-width="1.5" opacity="0.4"/>
    <line x1="680" y1="560" x2="820" y2="600" stroke="#3b82f6" stroke-width="1.5" opacity="0.4"/>
    <line x1="820" y1="600" x2="960" y2="570" stroke="#8b5cf6" stroke-width="1.5" opacity="0.4"/>
    <line x1="960" y1="570" x2="1100" y2="610" stroke="#2563eb" stroke-width="1.5" opacity="0.4"/>
    <line x1="1100" y1="610" x2="1240" y2="580" stroke="#3b82f6" stroke-width="1.5" opacity="0.4"/>
    <line x1="1240" y1="580" x2="1380" y2="620" stroke="#8b5cf6" stroke-width="1.5" opacity="0.4"/>
    <line x1="1380" y1="620" x2="1520" y2="590" stroke="#2563eb" stroke-width="1.5" opacity="0.4"/>
    <line x1="1520" y1="590" x2="1660" y2="630" stroke="#3b82f6" stroke-width="1.5" opacity="0.4"/>
    <line x1="1660" y1="630" x2="1800" y2="600" stroke="#8b5cf6" stroke-width="1.5" opacity="0.4"/>
    
    <line x1="120" y1="550" x2="180" y2="750" stroke="#3b82f6" stroke-width="1.5" opacity="0.3"/>
    <line x1="180" y1="750" x2="320" y2="720" stroke="#2563eb" stroke-width="1.5" opacity="0.4"/>
    <line x1="320" y1="720" x2="460" y2="780" stroke="#8b5cf6" stroke-width="1.5" opacity="0.4"/>
    <line x1="460" y1="780" x2="600" y2="740" stroke="#3b82f6" stroke-width="1.5" opacity="0.4"/>
    <line x1="600" y1="740" x2="740" y2="790" stroke="#2563eb" stroke-width="1.5" opacity="0.4"/>
    <line x1="740" y1="790" x2="880" y2="760" stroke="#8b5cf6" stroke-width="1.5" opacity="0.4"/>
    <line x1="880" y1="760" x2="1020" y2="800" stroke="#3b82f6" stroke-width="1.5" opacity="0.4"/>
    <line x1="1020" y1="800" x2="1160" y2="770" stroke="#2563eb" stroke-width="1.5" opacity="0.4"/>
    <line x1="1160" y1="770" x2="1300" y2="820" stroke="#8b5cf6" stroke-width="1.5" opacity="0.4"/>
    <line x1="1300" y1="820" x2="1440" y2="790" stroke="#3b82f6" stroke-width="1.5" opacity="0.4"/>
    <line x1="1440" y1="790" x2="1580" y2="840" stroke="#2563eb" stroke-width="1.5" opacity="0.4"/>
    <line x1="1580" y1="840" x2="1720" y2="810" stroke="#8b5cf6" stroke-width="1.5" opacity="0.4"/>
    <line x1="1720" y1="810" x2="1860" y2="850" stroke="#3b82f6" stroke-width="1.5" opacity="0.4"/>
    
    <line x1="180" y1="750" x2="240" y2="950" stroke="#2563eb" stroke-width="1.5" opacity="0.3"/>
    <line x1="240" y1="950" x2="380" y2="920" stroke="#3b82f6" stroke-width="1.5" opacity="0.4"/>
    <line x1="380" y1="920" x2="520" y2="970" stroke="#8b5cf6" stroke-width="1.5" opacity="0.4"/>
    <line x1="520" y1="970" x2="660" y2="940" stroke="#2563eb" stroke-width="1.5" opacity="0.4"/>
    <line x1="660" y1="940" x2="800" y2="990" stroke="#3b82f6" stroke-width="1.5" opacity="0.4"/>
    <line x1="800" y1="990" x2="940" y2="960" stroke="#8b5cf6" stroke-width="1.5" opacity="0.4"/>
    <line x1="940" y1="960" x2="1080" y2="1000" stroke="#2563eb" stroke-width="1.5" opacity="0.4"/>
    <line x1="1080" y1="1000" x2="1220" y2="970" stroke="#3b82f6" stroke-width="1.5" opacity="0.4"/>
    <line x1="1220" y1="970" x2="1360" y2="1020" stroke="#8b5cf6" stroke-width="1.5" opacity="0.4"/>
    <line x1="1360" y1="1020" x2="1500" y2="990" stroke="#2563eb" stroke-width="1.5" opacity="0.4"/>
    <line x1="1500" y1="990" x2="1640" y2="1040" stroke="#3b82f6" stroke-width="1.5" opacity="0.4"/>
    <line x1="1640" y1="1040" x2="1780" y2="1010" stroke="#8b5cf6" stroke-width="1.5" opacity="0.4"/>
    
    <!-- Diagonal connections for more network feel -->
    <line x1="280" y1="150" x2="340" y2="400" stroke="#2563eb" stroke-width="1" opacity="0.2"/>
    <line x1="550" y1="180" x2="620" y2="420" stroke="#3b82f6" stroke-width="1" opacity="0.2"/>
    <line x1="810" y1="190" x2="760" y2="380" stroke="#8b5cf6" stroke-width="1" opacity="0.2"/>
    <line x1="1080" y1="170" x2="1040" y2="360" stroke="#2563eb" stroke-width="1" opacity="0.2"/>
    <line x1="1350" y1="200" x2="1320" y2="380" stroke="#3b82f6" stroke-width="1" opacity="0.2"/>
    <line x1="1620" y1="210" x2="1600" y2="370" stroke="#8b5cf6" stroke-width="1" opacity="0.2"/>
    
    <line x1="340" y1="400" x2="400" y2="540" stroke="#2563eb" stroke-width="1" opacity="0.2"/>
    <line x1="620" y1="420" x2="680" y2="560" stroke="#3b82f6" stroke-width="1" opacity="0.2"/>
    <line x1="900" y1="410" x2="960" y2="570" stroke="#8b5cf6" stroke-width="1" opacity="0.2"/>
    <line x1="1180" y1="400" x2="1240" y2="580" stroke="#2563eb" stroke-width="1" opacity="0.2"/>
    <line x1="1460" y1="420" x2="1520" y2="590" stroke="#3b82f6" stroke-width="1" opacity="0.2"/>
    
    <line x1="400" y1="540" x2="460" y2="780" stroke="#8b5cf6" stroke-width="1" opacity="0.2"/>
    <line x1="680" y1="560" x2="740" y2="790" stroke="#2563eb" stroke-width="1" opacity="0.2"/>
    <line x1="960" y1="570" x2="1020" y2="800" stroke="#3b82f6" stroke-width="1" opacity="0.2"/>
    <line x1="1240" y1="580" x2="1300" y2="820" stroke="#8b5cf6" stroke-width="1" opacity="0.2"/>
    <line x1="1520" y1="590" x2="1580" y2="840" stroke="#2563eb" stroke-width="1" opacity="0.2"/>
    
    <line x1="460" y1="780" x2="520" y2="970" stroke="#3b82f6" stroke-width="1" opacity="0.2"/>
    <line x1="740" y1="790" x2="800" y2="990" stroke="#8b5cf6" stroke-width="1" opacity="0.2"/>
    <line x1="1020" y1="800" x2="1080" y2="1000" stroke="#2563eb" stroke-width="1" opacity="0.2"/>
    <line x1="1300" y1="820" x2="1360" y2="1020" stroke="#3b82f6" stroke-width="1" opacity="0.2"/>
    <line x1="1580" y1="840" x2="1640" y2="1040" stroke="#8b5cf6" stroke-width="1" opacity="0.2"/>
  </g>
</svg>
